<mxfile host="app.diagrams.net" modified="2024-03-15T06:39:36.126Z" agent="Mozilla/5.0 (Macintosh; Intel Mac OS X 10_15_7) AppleWebKit/537.36 (KHTML, like Gecko) Chrome/122.0.0.0 Safari/537.36" etag="U7EBPIJD0n-cm7XJ5cgQ" version="24.0.4" type="github" pages="2">
  <diagram name="生成短链" id="Uor-TfORxgtWXdHJYORw">
    <mxGraphModel dx="2074" dy="1049" grid="1" gridSize="10" guides="1" tooltips="1" connect="1" arrows="1" fold="1" page="1" pageScale="1" pageWidth="827" pageHeight="1169" math="0" shadow="0">
      <root>
        <mxCell id="0" />
        <mxCell id="1" parent="0" />
        <mxCell id="IqGT-qmV4josPysDnSMv-1" value="调用方" style="shape=umlLifeline;perimeter=lifelinePerimeter;whiteSpace=wrap;html=1;container=1;dropTarget=0;collapsible=0;recursiveResize=0;outlineConnect=0;portConstraint=eastwest;newEdgeStyle={&quot;edgeStyle&quot;:&quot;elbowEdgeStyle&quot;,&quot;elbow&quot;:&quot;vertical&quot;,&quot;curved&quot;:0,&quot;rounded&quot;:0};" parent="1" vertex="1">
          <mxGeometry x="50" y="240" width="100" height="710" as="geometry" />
        </mxCell>
        <mxCell id="IqGT-qmV4josPysDnSMv-2" value="ID生成服务" style="shape=umlLifeline;perimeter=lifelinePerimeter;whiteSpace=wrap;html=1;container=1;dropTarget=0;collapsible=0;recursiveResize=0;outlineConnect=0;portConstraint=eastwest;newEdgeStyle={&quot;edgeStyle&quot;:&quot;elbowEdgeStyle&quot;,&quot;elbow&quot;:&quot;vertical&quot;,&quot;curved&quot;:0,&quot;rounded&quot;:0};" parent="1" vertex="1">
          <mxGeometry x="380" y="240" width="100" height="710" as="geometry" />
        </mxCell>
        <mxCell id="IqGT-qmV4josPysDnSMv-4" value="" style="html=1;points=[];perimeter=orthogonalPerimeter;outlineConnect=0;targetShapes=umlLifeline;portConstraint=eastwest;newEdgeStyle={&quot;edgeStyle&quot;:&quot;elbowEdgeStyle&quot;,&quot;elbow&quot;:&quot;vertical&quot;,&quot;curved&quot;:0,&quot;rounded&quot;:0};" parent="IqGT-qmV4josPysDnSMv-2" vertex="1">
          <mxGeometry x="45" y="120" width="10" height="570" as="geometry" />
        </mxCell>
        <mxCell id="PXhH9LWvruzhFAJcvmFV-1" value="" style="html=1;points=[[0,0,0,0,5],[0,1,0,0,-5],[1,0,0,0,5],[1,1,0,0,-5]];perimeter=orthogonalPerimeter;outlineConnect=0;targetShapes=umlLifeline;portConstraint=eastwest;newEdgeStyle={&quot;curved&quot;:0,&quot;rounded&quot;:0};" parent="IqGT-qmV4josPysDnSMv-2" vertex="1">
          <mxGeometry x="50" y="160" width="10" height="40" as="geometry" />
        </mxCell>
        <mxCell id="PXhH9LWvruzhFAJcvmFV-2" value="填充明文scheme中appid、path和env_version" style="html=1;align=left;spacingLeft=2;endArrow=block;rounded=0;edgeStyle=orthogonalEdgeStyle;curved=0;rounded=0;" parent="IqGT-qmV4josPysDnSMv-2" target="PXhH9LWvruzhFAJcvmFV-1" edge="1">
          <mxGeometry x="0.0115" relative="1" as="geometry">
            <mxPoint x="57" y="140" as="sourcePoint" />
            <Array as="points">
              <mxPoint x="87" y="170" />
            </Array>
            <mxPoint as="offset" />
          </mxGeometry>
        </mxCell>
        <mxCell id="PXhH9LWvruzhFAJcvmFV-3" value="" style="html=1;points=[[0,0,0,0,5],[0,1,0,0,-5],[1,0,0,0,5],[1,1,0,0,-5]];perimeter=orthogonalPerimeter;outlineConnect=0;targetShapes=umlLifeline;portConstraint=eastwest;newEdgeStyle={&quot;curved&quot;:0,&quot;rounded&quot;:0};" parent="IqGT-qmV4josPysDnSMv-2" vertex="1">
          <mxGeometry x="50" y="230" width="10" height="40" as="geometry" />
        </mxCell>
        <mxCell id="PXhH9LWvruzhFAJcvmFV-4" value="如果有expireTime，填充时间戳" style="html=1;align=left;spacingLeft=2;endArrow=block;rounded=0;edgeStyle=orthogonalEdgeStyle;curved=0;rounded=0;" parent="IqGT-qmV4josPysDnSMv-2" target="PXhH9LWvruzhFAJcvmFV-3" edge="1">
          <mxGeometry relative="1" as="geometry">
            <mxPoint x="55" y="210" as="sourcePoint" />
            <Array as="points">
              <mxPoint x="85" y="240" />
            </Array>
          </mxGeometry>
        </mxCell>
        <mxCell id="PXhH9LWvruzhFAJcvmFV-5" value="" style="html=1;points=[[0,0,0,0,5],[0,1,0,0,-5],[1,0,0,0,5],[1,1,0,0,-5]];perimeter=orthogonalPerimeter;outlineConnect=0;targetShapes=umlLifeline;portConstraint=eastwest;newEdgeStyle={&quot;curved&quot;:0,&quot;rounded&quot;:0};" parent="IqGT-qmV4josPysDnSMv-2" vertex="1">
          <mxGeometry x="50" y="300" width="10" height="40" as="geometry" />
        </mxCell>
        <mxCell id="PXhH9LWvruzhFAJcvmFV-6" value="如果有query，对query进行aes加密" style="html=1;align=left;spacingLeft=2;endArrow=block;rounded=0;edgeStyle=orthogonalEdgeStyle;curved=0;rounded=0;" parent="IqGT-qmV4josPysDnSMv-2" target="PXhH9LWvruzhFAJcvmFV-5" edge="1">
          <mxGeometry relative="1" as="geometry">
            <mxPoint x="55" y="280" as="sourcePoint" />
            <Array as="points">
              <mxPoint x="85" y="310" />
            </Array>
          </mxGeometry>
        </mxCell>
        <mxCell id="8ftTOTrvEp7sxlF_hYRk-1" value="" style="html=1;points=[[0,0,0,0,5],[0,1,0,0,-5],[1,0,0,0,5],[1,1,0,0,-5]];perimeter=orthogonalPerimeter;outlineConnect=0;targetShapes=umlLifeline;portConstraint=eastwest;newEdgeStyle={&quot;curved&quot;:0,&quot;rounded&quot;:0};" vertex="1" parent="IqGT-qmV4josPysDnSMv-2">
          <mxGeometry x="50" y="370" width="10" height="40" as="geometry" />
        </mxCell>
        <mxCell id="8ftTOTrvEp7sxlF_hYRk-2" value="签名" style="html=1;align=left;spacingLeft=2;endArrow=block;rounded=0;edgeStyle=orthogonalEdgeStyle;curved=0;rounded=0;" edge="1" parent="IqGT-qmV4josPysDnSMv-2" target="8ftTOTrvEp7sxlF_hYRk-1">
          <mxGeometry relative="1" as="geometry">
            <mxPoint x="55" y="350" as="sourcePoint" />
            <Array as="points">
              <mxPoint x="85" y="380" />
            </Array>
          </mxGeometry>
        </mxCell>
        <mxCell id="8ftTOTrvEp7sxlF_hYRk-3" value="" style="html=1;points=[[0,0,0,0,5],[0,1,0,0,-5],[1,0,0,0,5],[1,1,0,0,-5]];perimeter=orthogonalPerimeter;outlineConnect=0;targetShapes=umlLifeline;portConstraint=eastwest;newEdgeStyle={&quot;curved&quot;:0,&quot;rounded&quot;:0};" vertex="1" parent="IqGT-qmV4josPysDnSMv-2">
          <mxGeometry x="50" y="440" width="10" height="40" as="geometry" />
        </mxCell>
        <mxCell id="8ftTOTrvEp7sxlF_hYRk-4" value="对query进行url encode" style="html=1;align=left;spacingLeft=2;endArrow=block;rounded=0;edgeStyle=orthogonalEdgeStyle;curved=0;rounded=0;" edge="1" parent="IqGT-qmV4josPysDnSMv-2" target="8ftTOTrvEp7sxlF_hYRk-3">
          <mxGeometry relative="1" as="geometry">
            <mxPoint x="55" y="420" as="sourcePoint" />
            <Array as="points">
              <mxPoint x="85" y="450" />
            </Array>
          </mxGeometry>
        </mxCell>
        <mxCell id="PXhH9LWvruzhFAJcvmFV-7" value="" style="html=1;points=[[0,0,0,0,5],[0,1,0,0,-5],[1,0,0,0,5],[1,1,0,0,-5]];perimeter=orthogonalPerimeter;outlineConnect=0;targetShapes=umlLifeline;portConstraint=eastwest;newEdgeStyle={&quot;curved&quot;:0,&quot;rounded&quot;:0};" parent="IqGT-qmV4josPysDnSMv-2" vertex="1">
          <mxGeometry x="50" y="510" width="10" height="40" as="geometry" />
        </mxCell>
        <mxCell id="PXhH9LWvruzhFAJcvmFV-8" value="baseJumpUrl + scheme + query" style="html=1;align=left;spacingLeft=2;endArrow=block;rounded=0;edgeStyle=orthogonalEdgeStyle;curved=0;rounded=0;" parent="IqGT-qmV4josPysDnSMv-2" target="PXhH9LWvruzhFAJcvmFV-7" edge="1">
          <mxGeometry x="0.0118" relative="1" as="geometry">
            <mxPoint x="55" y="490" as="sourcePoint" />
            <Array as="points">
              <mxPoint x="85" y="520" />
            </Array>
            <mxPoint as="offset" />
          </mxGeometry>
        </mxCell>
        <mxCell id="PXhH9LWvruzhFAJcvmFV-10" value="用拼接好的完整url请求手图短链" style="html=1;verticalAlign=bottom;endArrow=block;curved=0;rounded=0;entryX=0;entryY=0;entryDx=0;entryDy=5;" parent="IqGT-qmV4josPysDnSMv-2" edge="1">
          <mxGeometry relative="1" as="geometry">
            <mxPoint x="55" y="565" as="sourcePoint" />
            <mxPoint x="385" y="565" as="targetPoint" />
          </mxGeometry>
        </mxCell>
        <mxCell id="IqGT-qmV4josPysDnSMv-3" value="手图短链服务" style="shape=umlLifeline;perimeter=lifelinePerimeter;whiteSpace=wrap;html=1;container=1;dropTarget=0;collapsible=0;recursiveResize=0;outlineConnect=0;portConstraint=eastwest;newEdgeStyle={&quot;edgeStyle&quot;:&quot;elbowEdgeStyle&quot;,&quot;elbow&quot;:&quot;vertical&quot;,&quot;curved&quot;:0,&quot;rounded&quot;:0};" parent="1" vertex="1">
          <mxGeometry x="720" y="240" width="100" height="710" as="geometry" />
        </mxCell>
        <mxCell id="PXhH9LWvruzhFAJcvmFV-9" value="" style="html=1;points=[[0,0,0,0,5],[0,1,0,0,-5],[1,0,0,0,5],[1,1,0,0,-5]];perimeter=orthogonalPerimeter;outlineConnect=0;targetShapes=umlLifeline;portConstraint=eastwest;newEdgeStyle={&quot;curved&quot;:0,&quot;rounded&quot;:0};" parent="IqGT-qmV4josPysDnSMv-3" vertex="1">
          <mxGeometry x="42.5" y="560" width="10" height="80" as="geometry" />
        </mxCell>
        <mxCell id="PXhH9LWvruzhFAJcvmFV-11" value="短链" style="html=1;verticalAlign=bottom;endArrow=open;dashed=1;endSize=8;curved=0;rounded=0;exitX=0;exitY=1;exitDx=0;exitDy=-5;" parent="IqGT-qmV4josPysDnSMv-3" source="PXhH9LWvruzhFAJcvmFV-9" edge="1">
          <mxGeometry relative="1" as="geometry">
            <mxPoint x="-287.5" y="635" as="targetPoint" />
          </mxGeometry>
        </mxCell>
        <mxCell id="PXhH9LWvruzhFAJcvmFV-12" value="短链" style="html=1;verticalAlign=bottom;endArrow=open;dashed=1;endSize=8;curved=0;rounded=0;" parent="IqGT-qmV4josPysDnSMv-3" edge="1">
          <mxGeometry relative="1" as="geometry">
            <mxPoint x="-293" y="650" as="sourcePoint" />
            <mxPoint x="-622.5" y="650" as="targetPoint" />
          </mxGeometry>
        </mxCell>
        <mxCell id="IqGT-qmV4josPysDnSMv-5" value="&lt;span style=&quot;color: rgba(0, 10, 41, 0.9); font-family: &amp;quot;PingFang SC&amp;quot;, -apple-system, &amp;quot;system-ui&amp;quot;, &amp;quot;Segoe UI&amp;quot;, Roboto, Oxygen, Ubuntu, Cantarell, &amp;quot;Fira Sans&amp;quot;, &amp;quot;Droid Sans&amp;quot;, &amp;quot;Helvetica Neue&amp;quot;, sans-serif; font-weight: 700; text-align: start; word-spacing: 1px;&quot;&gt;&lt;font style=&quot;font-size: 12px;&quot;&gt;decodeWxAppPlaintextQuery&lt;/font&gt;&lt;/span&gt;" style="html=1;verticalAlign=bottom;startArrow=oval;endArrow=block;startSize=8;edgeStyle=elbowEdgeStyle;elbow=vertical;curved=0;rounded=0;" parent="1" target="IqGT-qmV4josPysDnSMv-4" edge="1">
          <mxGeometry relative="1" as="geometry">
            <mxPoint x="100" y="370" as="sourcePoint" />
          </mxGeometry>
        </mxCell>
      </root>
    </mxGraphModel>
  </diagram>
  <diagram id="PJbo40cWOid-kfx2iOUr" name="解析短链">
    <mxGraphModel dx="2074" dy="1049" grid="1" gridSize="10" guides="1" tooltips="1" connect="1" arrows="1" fold="1" page="1" pageScale="1" pageWidth="827" pageHeight="1169" math="0" shadow="0">
      <root>
        <mxCell id="0" />
        <mxCell id="1" parent="0" />
        <mxCell id="PY-hPZXX6cXLEsxpaqfb-1" value="浏览器" style="shape=umlLifeline;perimeter=lifelinePerimeter;whiteSpace=wrap;html=1;container=1;dropTarget=0;collapsible=0;recursiveResize=0;outlineConnect=0;portConstraint=eastwest;newEdgeStyle={&quot;edgeStyle&quot;:&quot;elbowEdgeStyle&quot;,&quot;elbow&quot;:&quot;vertical&quot;,&quot;curved&quot;:0,&quot;rounded&quot;:0};" vertex="1" parent="1">
          <mxGeometry x="60" y="110" width="100" height="710" as="geometry" />
        </mxCell>
        <mxCell id="taKz5q-i-Iye1UvXFg8q-1" value="小程序" style="shape=umlLifeline;perimeter=lifelinePerimeter;whiteSpace=wrap;html=1;container=1;dropTarget=0;collapsible=0;recursiveResize=0;outlineConnect=0;portConstraint=eastwest;newEdgeStyle={&quot;edgeStyle&quot;:&quot;elbowEdgeStyle&quot;,&quot;elbow&quot;:&quot;vertical&quot;,&quot;curved&quot;:0,&quot;rounded&quot;:0};" vertex="1" parent="1">
          <mxGeometry x="270" y="110" width="100" height="710" as="geometry" />
        </mxCell>
        <mxCell id="zDeOIvgDeeOsWyLlVGX--9" value="" style="html=1;points=[[0,0,0,0,5],[0,1,0,0,-5],[1,0,0,0,5],[1,1,0,0,-5]];perimeter=orthogonalPerimeter;outlineConnect=0;targetShapes=umlLifeline;portConstraint=eastwest;newEdgeStyle={&quot;curved&quot;:0,&quot;rounded&quot;:0};" vertex="1" parent="taKz5q-i-Iye1UvXFg8q-1">
          <mxGeometry x="46" y="260" width="10" height="40" as="geometry" />
        </mxCell>
        <mxCell id="zDeOIvgDeeOsWyLlVGX--10" value="提取query部分" style="html=1;align=left;spacingLeft=2;endArrow=block;rounded=0;edgeStyle=orthogonalEdgeStyle;curved=0;rounded=0;" edge="1" target="zDeOIvgDeeOsWyLlVGX--9" parent="taKz5q-i-Iye1UvXFg8q-1">
          <mxGeometry relative="1" as="geometry">
            <mxPoint x="51" y="240" as="sourcePoint" />
            <Array as="points">
              <mxPoint x="81" y="270" />
            </Array>
          </mxGeometry>
        </mxCell>
        <mxCell id="taKz5q-i-Iye1UvXFg8q-2" value="ID生成服务" style="shape=umlLifeline;perimeter=lifelinePerimeter;whiteSpace=wrap;html=1;container=1;dropTarget=0;collapsible=0;recursiveResize=0;outlineConnect=0;portConstraint=eastwest;newEdgeStyle={&quot;edgeStyle&quot;:&quot;elbowEdgeStyle&quot;,&quot;elbow&quot;:&quot;vertical&quot;,&quot;curved&quot;:0,&quot;rounded&quot;:0};" vertex="1" parent="1">
          <mxGeometry x="470" y="110" width="100" height="710" as="geometry" />
        </mxCell>
        <mxCell id="zDeOIvgDeeOsWyLlVGX--12" value="" style="html=1;points=[[0,0,0,0,5],[0,1,0,0,-5],[1,0,0,0,5],[1,1,0,0,-5]];perimeter=orthogonalPerimeter;outlineConnect=0;targetShapes=umlLifeline;portConstraint=eastwest;newEdgeStyle={&quot;curved&quot;:0,&quot;rounded&quot;:0};" vertex="1" parent="taKz5q-i-Iye1UvXFg8q-2">
          <mxGeometry x="46" y="380" width="10" height="40" as="geometry" />
        </mxCell>
        <mxCell id="zDeOIvgDeeOsWyLlVGX--13" value="验证签名" style="html=1;align=left;spacingLeft=2;endArrow=block;rounded=0;edgeStyle=orthogonalEdgeStyle;curved=0;rounded=0;" edge="1" target="zDeOIvgDeeOsWyLlVGX--12" parent="taKz5q-i-Iye1UvXFg8q-2">
          <mxGeometry relative="1" as="geometry">
            <mxPoint x="51" y="360" as="sourcePoint" />
            <Array as="points">
              <mxPoint x="81" y="390" />
            </Array>
          </mxGeometry>
        </mxCell>
        <mxCell id="zDeOIvgDeeOsWyLlVGX--16" value="" style="html=1;points=[[0,0,0,0,5],[0,1,0,0,-5],[1,0,0,0,5],[1,1,0,0,-5]];perimeter=orthogonalPerimeter;outlineConnect=0;targetShapes=umlLifeline;portConstraint=eastwest;newEdgeStyle={&quot;curved&quot;:0,&quot;rounded&quot;:0};" vertex="1" parent="taKz5q-i-Iye1UvXFg8q-2">
          <mxGeometry x="46" y="465" width="10" height="40" as="geometry" />
        </mxCell>
        <mxCell id="zDeOIvgDeeOsWyLlVGX--17" value="验证有效期" style="html=1;align=left;spacingLeft=2;endArrow=block;rounded=0;edgeStyle=orthogonalEdgeStyle;curved=0;rounded=0;" edge="1" parent="taKz5q-i-Iye1UvXFg8q-2" target="zDeOIvgDeeOsWyLlVGX--16">
          <mxGeometry relative="1" as="geometry">
            <mxPoint x="51" y="445" as="sourcePoint" />
            <Array as="points">
              <mxPoint x="81" y="475" />
            </Array>
          </mxGeometry>
        </mxCell>
        <mxCell id="zDeOIvgDeeOsWyLlVGX--18" value="" style="html=1;points=[[0,0,0,0,5],[0,1,0,0,-5],[1,0,0,0,5],[1,1,0,0,-5]];perimeter=orthogonalPerimeter;outlineConnect=0;targetShapes=umlLifeline;portConstraint=eastwest;newEdgeStyle={&quot;curved&quot;:0,&quot;rounded&quot;:0};" vertex="1" parent="taKz5q-i-Iye1UvXFg8q-2">
          <mxGeometry x="46" y="550" width="10" height="40" as="geometry" />
        </mxCell>
        <mxCell id="zDeOIvgDeeOsWyLlVGX--19" value="解密" style="html=1;align=left;spacingLeft=2;endArrow=block;rounded=0;edgeStyle=orthogonalEdgeStyle;curved=0;rounded=0;" edge="1" parent="taKz5q-i-Iye1UvXFg8q-2" target="zDeOIvgDeeOsWyLlVGX--18">
          <mxGeometry x="0.0118" relative="1" as="geometry">
            <mxPoint x="51" y="530" as="sourcePoint" />
            <Array as="points">
              <mxPoint x="81" y="560" />
            </Array>
            <mxPoint as="offset" />
          </mxGeometry>
        </mxCell>
        <mxCell id="zDeOIvgDeeOsWyLlVGX--1" value="手图短链服务" style="shape=umlLifeline;perimeter=lifelinePerimeter;whiteSpace=wrap;html=1;container=1;dropTarget=0;collapsible=0;recursiveResize=0;outlineConnect=0;portConstraint=eastwest;newEdgeStyle={&quot;edgeStyle&quot;:&quot;elbowEdgeStyle&quot;,&quot;elbow&quot;:&quot;vertical&quot;,&quot;curved&quot;:0,&quot;rounded&quot;:0};" vertex="1" parent="1">
          <mxGeometry x="670" y="110" width="100" height="710" as="geometry" />
        </mxCell>
        <mxCell id="zDeOIvgDeeOsWyLlVGX--5" value="短链" style="html=1;verticalAlign=bottom;endArrow=block;curved=0;rounded=0;" edge="1" parent="1" target="zDeOIvgDeeOsWyLlVGX--1">
          <mxGeometry width="80" relative="1" as="geometry">
            <mxPoint x="110" y="210" as="sourcePoint" />
            <mxPoint x="190" y="210" as="targetPoint" />
          </mxGeometry>
        </mxCell>
        <mxCell id="zDeOIvgDeeOsWyLlVGX--6" value="长链" style="html=1;verticalAlign=bottom;endArrow=open;dashed=1;endSize=8;curved=0;rounded=0;" edge="1" parent="1" source="zDeOIvgDeeOsWyLlVGX--1">
          <mxGeometry relative="1" as="geometry">
            <mxPoint x="190" y="260" as="sourcePoint" />
            <mxPoint x="110" y="260" as="targetPoint" />
          </mxGeometry>
        </mxCell>
        <mxCell id="zDeOIvgDeeOsWyLlVGX--7" value="中间页调起小程序" style="html=1;verticalAlign=bottom;endArrow=block;curved=0;rounded=0;" edge="1" parent="1" target="taKz5q-i-Iye1UvXFg8q-1">
          <mxGeometry width="80" relative="1" as="geometry">
            <mxPoint x="110" y="320" as="sourcePoint" />
            <mxPoint x="190" y="320" as="targetPoint" />
          </mxGeometry>
        </mxCell>
        <mxCell id="zDeOIvgDeeOsWyLlVGX--11" value="&lt;span style=&quot;color: rgba(0, 10, 41, 0.9); font-family: &amp;quot;PingFang SC&amp;quot;, -apple-system, &amp;quot;system-ui&amp;quot;, &amp;quot;Segoe UI&amp;quot;, Roboto, Oxygen, Ubuntu, Cantarell, &amp;quot;Fira Sans&amp;quot;, &amp;quot;Droid Sans&amp;quot;, &amp;quot;Helvetica Neue&amp;quot;, sans-serif; font-weight: 700; text-align: start; word-spacing: 1px;&quot;&gt;&lt;font style=&quot;font-size: 12px;&quot;&gt;decodeWxAppPlaintextQuery&lt;/font&gt;&lt;/span&gt;" style="html=1;verticalAlign=bottom;endArrow=block;curved=0;rounded=0;" edge="1" parent="1" target="taKz5q-i-Iye1UvXFg8q-2">
          <mxGeometry width="80" relative="1" as="geometry">
            <mxPoint x="320" y="450" as="sourcePoint" />
            <mxPoint x="340" y="450" as="targetPoint" />
          </mxGeometry>
        </mxCell>
        <mxCell id="zDeOIvgDeeOsWyLlVGX--20" value="明文query" style="html=1;verticalAlign=bottom;endArrow=open;dashed=1;endSize=8;curved=0;rounded=0;" edge="1" parent="1" source="taKz5q-i-Iye1UvXFg8q-2">
          <mxGeometry relative="1" as="geometry">
            <mxPoint x="340" y="720" as="sourcePoint" />
            <mxPoint x="320" y="720" as="targetPoint" />
          </mxGeometry>
        </mxCell>
      </root>
    </mxGraphModel>
  </diagram>
</mxfile>
